HIERARCHY
ROOT Hips
{
	OFFSET 53.535801 -6.298005 91.551300
	CHANNELS 6 Xposition Yposition Zposition Xrotation Yrotation Zrotation
	JOINT spine
	{
		OFFSET 0.000000 -0.393702 6.846367
		CHANNELS 3 Xrotation Yrotation Zrotation
		JOINT spine1
		{
			OFFSET 0.000000 -0.000001 9.496208
			CHANNELS 3 Xrotation Yrotation Zrotation
			JOINT spine2
			{
				OFFSET 0.000000 -0.000001 9.099091
				CHANNELS 3 Xrotation Yrotation Zrotation
				JOINT Neck
				{
					OFFSET 0.000000 -1.113784 23.361206
					CHANNELS 3 Xrotation Yrotation Zrotation
					JOINT Head
					{
						OFFSET 0.000000 -0.000001 7.058014
						CHANNELS 3 Xrotation Yrotation Zrotation
						End Site
						{
							OFFSET 0.000000 5.634187 17.084396
						}
					}
				}
				JOINT RightShoulder
				{
					OFFSET -3.831360 0.533490 9.826309
					CHANNELS 3 Xrotation Yrotation Zrotation
					JOINT RightArm
					{
						OFFSET 0.000000 -0.000002 12.888092
						CHANNELS 3 Xrotation Yrotation Zrotation
						JOINT RightArmRoll
						{
							OFFSET 0.000000 -0.000001 6.506165
							CHANNELS 3 Xrotation Yrotation Zrotation
							JOINT RightForeArm
							{
								OFFSET 0.000000 -0.000003 18.950104
								CHANNELS 3 Xrotation Yrotation Zrotation
								JOINT RightForeArmRoll
								{
									OFFSET 0.000000 -0.000001 7.300934
									CHANNELS 3 Xrotation Yrotation Zrotation
									JOINT RightHand
									{
										OFFSET 0.000000 -0.000002 14.651398
										CHANNELS 3 Xrotation Yrotation Zrotation
										End Site
										{
											OFFSET 0.000000 0.000000 0.100006
										}
									}
								}
							}
						}
					}
				}
				JOINT LeftShoulder
				{
					OFFSET 3.831360 0.533490 9.826309
					CHANNELS 3 Xrotation Yrotation Zrotation
					JOINT LeftArm
					{
						OFFSET 0.000000 -0.000002 12.888092
						CHANNELS 3 Xrotation Yrotation Zrotation
						JOINT LeftArmRoll
						{
							OFFSET 0.000000 -0.000001 6.506165
							CHANNELS 3 Xrotation Yrotation Zrotation
							JOINT LeftForeArm
							{
								OFFSET 0.000000 -0.000003 18.950104
								CHANNELS 3 Xrotation Yrotation Zrotation
								JOINT LeftForeArmRoll
								{
									OFFSET 0.000000 -0.000001 7.300919
									CHANNELS 3 Xrotation Yrotation Zrotation
									JOINT LeftHand
									{
										OFFSET 0.000000 -0.000002 14.651398
										CHANNELS 3 Xrotation Yrotation Zrotation
										End Site
										{
											OFFSET 0.000000 0.000000 0.100006
										}
									}
								}
							}
						}
					}
				}
			}
		}
	}
	JOINT RightUpLeg
	{
		OFFSET -6.068371 0.933477 -1.112778
		CHANNELS 3 Xrotation Yrotation Zrotation
		JOINT RightUpLegRoll
		{
			OFFSET 0.000000 -0.000003 17.179596
			CHANNELS 3 Xrotation Yrotation Zrotation
			JOINT RightLeg
			{
				OFFSET 0.000000 0.000003 -21.274300
				CHANNELS 3 Xrotation Yrotation Zrotation
				JOINT RightLegRoll
				{
					OFFSET 0.000000 -0.000003 21.343903
					CHANNELS 3 Xrotation Yrotation Zrotation
					JOINT RightFoot
					{
						OFFSET 0.000000 -0.000003 17.765198
						CHANNELS 3 Xrotation Yrotation Zrotation
						JOINT RightToeBase
						{
							OFFSET 0.000000 -0.000002 14.850792
							CHANNELS 3 Xrotation Yrotation Zrotation
							End Site
							{
								OFFSET 0.006294 0.829003 7.192139
							}
						}
					}
				}
			}
		}
	}
	JOINT LeftUpLeg
	{
		OFFSET 6.068371 0.933477 -1.112778
		CHANNELS 3 Xrotation Yrotation Zrotation
		JOINT LeftUpLegRoll
		{
			OFFSET 0.000000 -0.000003 17.179703
			CHANNELS 3 Xrotation Yrotation Zrotation
			JOINT LeftLeg
			{
				OFFSET 0.000000 -0.000003 21.274200
				CHANNELS 3 Xrotation Yrotation Zrotation
				JOINT LeftLegRoll
				{
					OFFSET 0.000000 -0.000003 21.541199
					CHANNELS 3 Xrotation Yrotation Zrotation
					JOINT LeftFoot
					{
						OFFSET 0.000000 -0.000003 17.567902
						CHANNELS 3 Xrotation Yrotation Zrotation
						JOINT LeftToeBase
						{
							OFFSET 0.000000 -0.000002 14.850800
							CHANNELS 3 Xrotation Yrotation Zrotation
							End Site
							{
								OFFSET -0.028210 0.829003 7.192123
							}
						}
					}
				}
			}
		}
	}
}
MOTION
Frames: 8
Frame Time: 0.041667
54.439400 -5.075919 91.596992 -1.000563 0.490035 -4.131412 -1.778233 -0.284220 -0.070419 0.441473 -0.580918 -0.146750 2.086578 -0.582547 -0.140394 16.634490 6.382942 0.413141 -3.926544 -3.930810 0.333748 17.639799 -70.787835 17.947148 -10.794961 -102.629507 7.516226 -0.000000 -0.000000 -0.000003 13.670565 -7.774573 -0.311165 -0.000006 0.000007 -3.000001 -5.000194 -7.998992 0.000124 1.338291 70.544386 -0.132134 -16.155260 106.079969 -9.244335 0.000001 0.000000 -0.000001 8.356726 10.032063 -0.160244 -0.000002 0.000013 3.005250 -5.000243 7.998785 -0.000168 -2.878890 -175.666455 0.904712 -179.999991 0.000005 -1.035998 174.804963 -2.255700 -0.246039 0.000002 0.000002 0.038105 68.660224 6.904300 2.118045 25.456950 -7.355613 -0.000000 0.530757 174.639222 -0.455685 -0.000005 -0.000005 -1.081550 -3.912871 1.911248 0.149518 -0.000004 0.000002 -0.034396 69.110231 -6.897804 -2.098258 25.456957 7.355614 -0.000010 
54.441010 -5.073889 91.599289 -0.987875 0.488136 -4.122013 -1.782374 -0.283060 -0.070344 0.433528 -0.577548 -0.146587 2.078636 -0.579183 -0.140226 16.652570 6.333413 0.415292 -3.926487 -3.888291 0.336859 17.661503 -70.816241 17.964907 -10.772673 -102.579824 7.570110 -0.000001 -0.000000 -0.000004 13.671940 -7.761153 -0.313208 -0.000008 0.000007 -3.000001 -5.000191 -7.998993 0.000124 1.329572 70.516854 -0.125770 -16.129657 106.070755 -9.247197 0.000001 0.000000 -0.000001 8.384154 10.052257 -0.162760 -0.000003 0.000012 3.005250 -5.000241 7.998785 -0.000169 -2.885770 -175.666482 0.902882 -179.999991 0.000005 -1.035999 174.812176 -2.255726 -0.245753 0.000002 0.000002 0.038104 68.662860 6.904292 2.117980 25.456947 -7.355613 -0.000001 0.513538 174.641216 -0.450388 -0.000005 -0.000005 -1.081350 -3.913895 1.908243 0.149521 -0.000004 0.000001 -0.034397 69.110340 -6.897809 -2.098251 25.456955 7.355613 -0.000010 
54.432400 -5.071022 91.599091 -0.975204 0.486397 -4.112689 -1.786492 -0.281938 -0.070231 0.425615 -0.574203 -0.146340 2.070724 -0.575841 -0.139973 16.671655 6.283454 0.417435 -3.927639 -3.845295 0.339922 17.685484 -70.845147 17.985005 -10.747653 -102.530039 7.626286 -0.000001 -0.000000 -0.000005 13.673935 -7.748153 -0.315156 -0.000006 0.000007 -3.000001 -5.000192 -7.998993 0.000124 1.323830 70.489984 -0.122610 -16.099075 106.061158 -9.253948 0.000001 0.000000 -0.000000 8.413863 10.073680 -0.165474 -0.000003 0.000013 3.005248 -5.000242 7.998785 -0.000168 -2.892541 -175.665499 0.900880 -179.999991 0.000005 -1.035997 174.819525 -2.254759 -0.245374 0.000002 0.000002 0.038105 68.665483 6.904286 2.118013 25.456948 -7.355614 0.000000 0.496319 174.643197 -0.445250 -0.000005 -0.000005 -1.081160 -3.914969 1.905297 0.149523 -0.000004 0.000001 -0.034396 69.110449 -6.897814 -2.098247 25.456950 7.355614 -0.000010 
54.432503 -5.068390 91.603592 -0.962548 0.484772 -4.103424 -1.790610 -0.280843 -0.070091 0.417723 -0.570874 -0.146034 2.062833 -0.572515 -0.139661 16.691439 6.233206 0.419589 -3.929646 -3.801977 0.342951 17.711123 -70.874414 18.006817 -10.721407 -102.479188 7.683439 -0.000001 -0.000000 -0.000002 13.676237 -7.735460 -0.317042 -0.000009 0.000008 -3.000000 -5.000192 -7.998992 0.000125 1.320178 70.463810 -0.121684 -16.065974 106.050346 -9.262348 0.000001 0.000000 0.000001 8.445178 10.096143 -0.168355 -0.000003 0.000013 3.005252 -5.000243 7.998784 -0.000171 -2.899234 -175.664529 0.898782 -179.999991 0.000005 -1.035998 174.826984 -2.253793 -0.245988 0.000002 0.000002 0.038105 68.668133 6.904314 2.117953 25.456948 -7.355613 -0.000001 0.479101 174.644194 -0.440231 -0.000005 -0.000005 -1.080969 -3.916093 1.902402 0.149526 -0.000005 0.000001 -0.034396 69.110538 -6.897785 -2.098336 25.456953 7.355613 -0.000010 
54.425602 -5.065071 91.602394 -0.949903 0.483214 -4.094178 -1.794731 -0.279762 -0.069937 0.409845 -0.567554 -0.145693 2.054952 -0.569199 -0.139312 16.711641 6.182782 0.421776 -3.932140 -3.758478 0.345964 17.737822 -70.903989 18.029731 -10.693068 -102.429301 7.742589 -0.000001 -0.000001 -0.000006 13.678751 -7.722929 -0.318894 -0.000006 0.000007 -3.000001 -5.000192 -7.998992 0.000122 1.317708 70.437828 -0.122046 -16.030883 106.039390 -9.272258 0.000001 0.000000 -0.000003 8.477405 10.118970 -0.171315 -0.000004 0.000012 3.005251 -5.000242 7.998785 -0.000166 -2.905891 -175.664556 0.896699 -179.999991 0.000005 -1.035998 174.834456 -2.253819 -0.245695 0.000002 0.000002 0.038104 68.670770 6.904307 2.117988 25.456948 -7.355613 0.000000 0.461886 174.645178 -0.435275 -0.000005 -0.000005 -1.080790 -3.917227 1.899526 0.149530 -0.000005 0.000001 -0.034396 69.110648 -6.897791 -2.098330 25.456955 7.355613 -0.000009 
54.425301 -5.062601 91.603088 -0.937253 0.481676 -4.084939 -1.798839 -0.278686 -0.069779 0.401970 -0.564238 -0.145344 2.047080 -0.565885 -0.138955 16.731942 6.132316 0.423992 -3.934763 -3.714918 0.348978 17.764776 -70.933557 18.052893 -10.665129 -102.378395 7.801221 -0.000000 -0.000000 -0.000004 13.681370 -7.710443 -0.320741 -0.000007 0.000007 -3.000000 -5.000191 -7.998992 0.000122 1.315544 70.412031 -0.122720 -15.996202 106.027444 -9.281600 0.000001 0.000001 0.000001 8.509876 10.141981 -0.174332 -0.000004 0.000012 3.005249 -5.000243 7.998785 -0.000170 -2.912529 -175.664583 0.894598 -179.999991 0.000005 -1.035998 174.841969 -2.252853 -0.246307 0.000002 0.000002 0.038105 68.673509 6.904303 2.118016 25.456952 -7.355615 0.000001 0.444670 174.646148 -0.430336 -0.000005 -0.000005 -1.080600 -3.918372 1.896649 0.149533 -0.000005 0.000001 -0.034396 69.110757 -6.897794 -2.098323 25.456955 7.355613 -0.000010 
54.433102 -5.064738 91.604782 -0.924605 0.480111 -4.075692 -1.802963 -0.277602 -0.069628 0.394088 -0.560917 -0.145010 2.039198 -0.562567 -0.138613 16.752149 6.081932 0.426244 -3.937135 -3.671460 0.352005 17.791328 -70.962947 18.075635 -10.637525 -102.327531 7.859650 -0.000001 -0.000000 -0.000003 13.683784 -7.697875 -0.322606 -0.000008 0.000008 -2.999999 -5.000191 -7.998992 0.000123 1.312797 70.386049 -0.122783 -15.961437 106.016523 -9.291311 0.000002 0.000001 -0.000000 8.541893 10.164801 -0.177344 -0.000002 0.000012 3.005248 -5.000240 7.998784 -0.000167 -2.919205 -175.663614 0.892473 -179.999991 0.000006 -1.035998 174.849455 -2.251886 -0.245923 0.000002 0.000002 0.038105 68.676138 6.904295 2.118050 25.456950 -7.355615 -0.000001 0.427451 174.648142 -0.425357 -0.000005 -0.000005 -1.080420 -3.919515 1.893764 0.149535 -0.000005 0.000001 -0.034396 69.110866 -6.897801 -2.098218 25.456953 7.355614 -0.000010 
54.424500 -5.060211 91.605286 -0.911943 0.478472 -4.066403 -1.807079 -0.276498 -0.069496 0.386191 -0.557583 -0.144717 2.031297 -0.559236 -0.138312 16.771777 6.031778 0.428544 -3.938908 -3.628232 0.355057 17.816854 -70.992139 18.097324 -10.610241 -102.277711 7.917921 -0.000001 -0.000001 -0.000004 13.685988 -7.685093 -0.324528 -0.000008 0.000007 -3.000001 -5.000192 -7.998992 0.000124 1.308583 70.359575 -0.121258 -15.929094 106.005800 -9.299197 0.000001 0.000000 0.000002 8.572775 10.186852 -0.180272 -0.000003 0.000012 3.005247 -5.000243 7.998785 -0.000165 -2.925914 -175.663641 0.890455 -179.999991 0.000005 -1.035999 174.856886 -2.250906 -0.245541 0.000002 0.000002 0.038104 68.678775 6.904322 2.117991 25.456948 -7.355616 -0.000000 0.410235 174.649139 -0.420310 -0.000005 -0.000005 -1.080230 -3.920618 1.890848 0.149537 -0.000005 0.000001 -0.034396 69.110975 -6.897807 -2.098212 25.456957 7.355613 -0.000010 
